<svg xmlns="http://www.w3.org/2000/svg" width="250" height="250" viewBox="0 0 250 250"><path d="M146.043 139.89l-2.313-5.752c-.595-1.48-2.03-2.45-3.625-2.45H95.047a7.82 7.82 0 0 0-5.13 1.918l-7.947 6.9a7.82 7.82 0 0 0-2.577 4.578l-15.57 90.523a6.98 6.98 0 0 0 6.877 8.161h111.114a6.98 6.98 0 0 0 6.878-5.8l15.365-89.335a5.39 5.39 0 0 0-5.311-6.3h-49.082c-1.592 0-3.025-.967-3.62-2.443z" fill="#666"></path><path d="M133.93 6a25.86 25.86 0 0 1 25.855 25.855c0 14.28-11.576 25.855-25.855 25.855s-25.855-11.576-25.855-25.855c0-6.857 2.724-13.433 7.573-18.282S127.072 6 133.93 6z" fill="#99c14d"></path><path d="M147.093 30.322H135.46V18.7a1.53 1.53 0 1 0-3.064 0v11.632h-11.632a1.53 1.53 0 1 0 0 3.064h11.632v11.632a1.53 1.53 0 1 0 3.064 0V33.386h11.633a1.53 1.53 0 1 0 0-3.064z" fill="#121212"></path><path d="M141.076 99.944l-5.53 5.53v-27.5a1.62 1.62 0 0 0-1.619-1.619 1.62 1.62 0 0 0-1.619 1.619v27.5l-5.53-5.53a1.62 1.62 0 0 0-2.273.015 1.62 1.62 0 0 0-.015 2.273l8.29 8.29a1.6 1.6 0 0 0 .555.361c.387.158.82.154 1.205-.01a1.59 1.59 0 0 0 .529-.352l8.292-8.292a1.62 1.62 0 0 0-.015-2.273 1.62 1.62 0 0 0-2.273-.015z" fill="#fff"></path><path d="M163.833 152.833H50.9a4.9 4.9 0 0 0-4.811 5.821l15.12 78.82c.702 3.656 3.9 6.3 7.624 6.3h112.933a4.9 4.9 0 0 0 4.811-5.821l-15.12-78.82c-.702-3.657-3.9-6.3-7.624-6.3z" fill="#aaa"></path></svg>