<svg xmlns="http://www.w3.org/2000/svg" viewBox="0 0 40 40" width="40" height="40" preserveAspectRatio="xMidYMid slice" style="width: 100%; height: 100%; transform: translate3d(0px, 0px, 0px);"><defs><clipPath id="__lottie_element_90"><rect width="40" height="40" x="0" y="0"></rect></clipPath></defs><g clip-path="url(#__lottie_element_90)"><g transform="matrix(1,0,0,1,0,0)" opacity="1" style="display: block;"><g opacity="1" transform="matrix(0,0,0,0,20.089000701904297,21)"><path fill="rgb(255,255,255)" fill-opacity="1" d=" M9.864999771118164,-2.624000072479248 C9.864999771118164,-3.5399999618530273 9.741000175476074,-4.427000045776367 9.508999824523926,-5.269999980926514 C9.277000427246094,-6.11299991607666 8.937999725341797,-6.910999774932861 8.505999565124512,-7.6479997634887695 C8.074000358581543,-8.385000228881836 7.548999786376953,-9.062000274658203 6.948999881744385,-9.661999702453613 C6.348999977111816,-10.26200008392334 5.671999931335449,-10.786999702453613 4.934999942779541,-11.218999862670898 C4.197999954223633,-11.651000022888184 3.4000000953674316,-11.989999771118164 2.556999921798706,-12.222000122070312 C1.7139999866485596,-12.454000473022461 0.8270000219345093,-12.57800006866455 -0.08900000154972076,-12.57800006866455 C-1.4630000591278076,-12.57800006866455 -2.7720000743865967,-12.300000190734863 -3.9630000591278076,-11.795999526977539 C-5.1539998054504395,-11.291999816894531 -6.22599983215332,-10.562999725341797 -7.126999855041504,-9.661999702453613 C-8.027999877929688,-8.76099967956543 -8.756999969482422,-7.689000129699707 -9.26099967956543,-6.498000144958496 C-9.765000343322754,-5.307000160217285 -10.043000221252441,-3.997999906539917 -10.043000221252441,-2.624000072479248 C-10.043000221252441,-1.25 -9.765000343322754,0.05900000035762787 -9.26099967956543,1.25 C-8.756999969482422,2.440999984741211 -8.027999877929688,3.513000011444092 -7.126999855041504,4.414000034332275 C-6.22599983215332,5.315000057220459 -5.1539998054504395,6.043000221252441 -3.9630000591278076,6.546999931335449 C-2.7720000743865967,7.051000118255615 -1.4630000591278076,7.328999996185303 -0.08900000154972076,7.328999996185303 C1.284999966621399,7.328999996185303 2.5940001010894775,7.051000118255615 3.7850000858306885,6.546999931335449 C4.97599983215332,6.043000221252441 6.047999858856201,5.315000057220459 6.948999881744385,4.414000034332275 C7.849999904632568,3.513000011444092 8.579000473022461,2.440999984741211 9.083000183105469,1.25 C9.586999893188477,0.05900000035762787 9.864999771118164,-1.25 9.864999771118164,-2.624000072479248z"></path></g><g opacity="1" transform="matrix(1,0,0,1,20.0939998626709,21)"><path fill="rgb(255,255,255)" fill-opacity="1" d=" M9.713000297546387,-9.64799976348877 C9.034000396728516,-11.965999603271484 6.9120001792907715,-13.562000274658203 4.495999813079834,-13.569999694824219 C4.495999813079834,-13.569999694824219 -1.065000057220459,-13.569999694824219 -1.065000057220459,-13.569999694824219 C-2.3329999446868896,-13.569000244140625 -3.562000036239624,-13.12600040435791 -4.5370001792907715,-12.3149995803833 C-4.5370001792907715,-12.3149995803833 -5.752999782562256,-11.305000305175781 -5.752999782562256,-11.305000305175781 C-6.671999931335449,-10.541000366210938 -7.829999923706055,-10.121999740600586 -9.026000022888184,-10.121000289916992 C-9.026000022888184,-10.121000289916992 -9.982000350952148,-10.121000289916992 -9.982000350952148,-10.121000289916992 C-11.394000053405762,-10.119000434875488 -12.538000106811523,-8.975000381469727 -12.539999961853027,-7.564000129699707 C-12.539999961853027,-7.564000129699707 -12.539999961853027,1.312000036239624 -12.539999961853027,1.312000036239624 C-12.538000106811523,2.7239999771118164 -11.394000053405762,3.868000030517578 -9.982000350952148,3.869999885559082 C-7.446000099182129,3.869999885559082 -0.6600000262260437,4.968999862670898 0.26600000262260437,9.98799991607666 C0.8799999952316284,13.310999870300293 2.9649999141693115,13.569999694824219 3.5869998931884766,13.569999694824219 C3.750999927520752,13.569999694824219 3.9149999618530273,13.555000305175781 4.077000141143799,13.527000427246094 C5.8429999351501465,13.17300033569336 7,11.468999862670898 6.676000118255615,9.697999954223633 C6.676000118255615,9.697999954223633 5.644999980926514,3.869999885559082 5.644999980926514,3.869999885559082 C5.644999980926514,3.869999885559082 8.473999977111816,3.869999885559082 8.473999977111816,3.869999885559082 C9.694000244140625,3.875 10.843999862670898,3.302000045776367 11.574000358581543,2.3239998817443848 C12.309000015258789,1.3530000448226929 12.539999961853027,0.09099999815225601 12.199000358581543,-1.0770000219345093 C12.199000358581543,-1.0770000219345093 9.713000297546387,-9.64799976348877 9.713000297546387,-9.64799976348877z M10.267999649047852,1.3519999980926514 C9.845000267028809,1.9210000038146973 9.175999641418457,2.255000114440918 8.467000007629395,2.252000093460083 C8.467000007629395,2.252000093460083 3.700000047683716,2.252000093460083 3.700000047683716,2.252000093460083 C3.700000047683716,2.252000093460083 5.068999767303467,9.982000350952148 5.068999767303467,9.982000350952148 C5.248000144958496,10.871999740600586 4.679999828338623,11.741000175476074 3.7929999828338623,11.932999610900879 C2.881999969482422,12.092000007629395 2.1480000019073486,11.232999801635742 1.8630000352859497,9.701000213623047 C1.3630000352859497,7 -0.5099999904632568,4.881999969482422 -3.559999942779541,3.5789999961853027 C-5.599999904632568,2.740999937057495 -7.7779998779296875,2.2899999618530273 -9.982999801635742,2.250999927520752 C-10.498000144958496,2.25 -10.913999557495117,1.8329999446868896 -10.914999961853027,1.3200000524520874 C-10.914999961853027,1.3200000524520874 -10.914999961853027,-7.557000160217285 -10.914999961853027,-7.557000160217285 C-10.913999557495117,-8.071000099182129 -10.496999740600586,-8.487000465393066 -9.982999801635742,-8.48799991607666 C-9.982999801635742,-8.48799991607666 -9.027000427246094,-8.48799991607666 -9.027000427246094,-8.48799991607666 C-7.452000141143799,-8.48900032043457 -5.926000118255615,-9.041000366210938 -4.714000225067139,-10.04800033569336 C-4.714000225067139,-10.04800033569336 -3.5,-11.059000015258789 -3.5,-11.059000015258789 C-2.815000057220459,-11.626999855041504 -1.9550000429153442,-11.937999725341797 -1.065000057220459,-11.939000129699707 C-1.065000057220459,-11.939000129699707 4.491000175476074,-11.939000129699707 4.491000175476074,-11.939000129699707 C6.183000087738037,-11.932999610900879 7.670000076293945,-10.8149995803833 8.147000312805176,-9.1899995803833 C8.147000312805176,-9.1899995803833 10.625,-0.6209999918937683 10.625,-0.6209999918937683 C10.824999809265137,0.054999999701976776 10.692000389099121,0.7850000262260437 10.269000053405762,1.347000002861023 C10.269000053405762,1.347000002861023 10.267999649047852,1.3519999980926514 10.267999649047852,1.3519999980926514z"></path></g></g></g></svg>